<svg width="343" height="426" viewBox="0 0 343 426" fill="none" xmlns="http://www.w3.org/2000/svg">
<path d="M193.939 370.465L209.117 347.192C211.157 344.301 211.643 340.584 210.429 337.28L201.467 312.72C200.885 311.116 199.039 310.363 197.533 311.141C194.789 312.55 191.073 316.315 192.773 323.871C193.818 328.511 196.246 341.75 196.246 341.75C196.246 341.75 187.674 357.42 161.324 364.513L193.939 370.465Z" fill="#FBC5A4"/>
<path d="M241.538 366.141L257.032 341.993C257.882 340.657 258.464 339.175 258.756 337.621L263.419 311.748C263.613 310.606 262.981 309.489 261.864 309.124C259.46 308.347 254.117 307.934 251.568 313.789C247.828 322.413 243.384 337.645 243.384 337.645L226.311 359.193L194.401 366.918L239.522 375.275L241.538 366.141Z" fill="#FBC5A4"/>
<path d="M232.916 356.229L238.453 331.231L240.687 309.95C240.833 308.663 239.886 307.521 238.623 307.375C236.316 307.108 231.653 307.521 229.589 312.258C226.335 319.765 220.579 344.641 220.579 344.641L189.155 360.092L202.244 369.785L228.933 362.4L232.916 356.229Z" fill="#FBC5A4"/>
<path d="M107.922 379.284C107.922 379.284 109.112 350.933 140.998 348.941L193.283 355.792L247.244 377.292L143.791 400.128L107.922 379.284Z" fill="#FBCFB5"/>
<path d="M247.245 377.292L250.766 376.709C253.559 376.247 256.085 374.814 257.906 372.652L290.618 330.867C291.953 329.288 291.492 325.717 289.574 324.939C286.829 323.822 282.895 323.069 279.228 325.425C272.671 329.628 243.456 358.707 243.456 358.707L196.392 358.877L247.245 377.292Z" fill="#FBCFB5"/>
<path d="M233.597 361.112C233.597 361.112 221.435 373.089 212 382C206.233 387.446 148.429 399.059 148.429 399.059L148.332 387.446L230.877 351.006L233.597 361.112Z" fill="#FBC5A4"/>
<path d="M111.031 368.036C111.031 368.036 119.895 347.557 145.272 348.601C171.913 349.694 201.637 356.326 201.637 356.326L217.156 353.606C223.275 352.537 229.711 352.658 233.475 357.59C234.592 359.047 234.155 361.137 232.576 362.06L208.68 375.81C207.102 376.709 205.402 377.365 203.629 377.753L153.262 390.119C150.518 390.75 148.575 393.18 148.526 395.973L148.454 399.059L111.031 368.036Z" fill="#FBCFB5"/>
<path d="M151.61 426L148.332 387.446L107.922 379.284L103.162 426H151.61Z" fill="#FBCFB5"/>
<path d="M276.193 266.951C280.782 254.416 273.667 239.329 264.9 224.34C249.115 197.423 241.198 183.479 225.51 155.299C249.309 141.136 261.257 134.139 285.032 121.191C296.568 141.427 302.347 151.363 313.931 170.603C321.314 182.774 321.484 197.035 313.616 209.619C298.68 231.92 291.176 243.508 276.193 266.951Z" fill="#299E63"/>
<path d="M217.665 198.468C203.143 223.174 195.882 235.71 181.384 260.489C195.688 285.025 202.827 297.196 217.204 320.907C217.253 310.558 217.253 305.408 217.277 295.083C221.721 294.864 223.882 294.767 228.351 294.5C268.348 292.629 282.628 264.425 263.734 232.916C258.853 224.851 253.68 215.789 247.584 205.197C252.053 215.06 250.037 223.393 239.692 223.685C230.804 223.976 226.384 224.122 217.544 224.316C217.593 213.967 217.617 208.817 217.665 198.468Z" fill="#228553"/>
<path d="M126.16 198.249C112.852 172.863 106.052 160.084 92.6954 134.673C64.3307 133.872 50.1969 133.507 22.4878 133.192C31.2304 138.706 35.6016 141.427 44.3685 146.917C42.2071 150.804 41.1386 152.699 39.0015 156.635C19.4522 191.593 35.8688 218.607 72.5875 219.215C82.0101 219.336 92.4526 219.725 104.644 220.138C93.9097 218.729 87.887 212.607 93.1326 203.667C97.5767 195.966 99.8109 192.127 104.279 184.524C113.046 189.99 117.417 192.735 126.16 198.249Z" fill="#228553"/>
<path d="M174.754 125.563C203.386 124.665 217.86 124.154 246.54 123.207C259.654 98.0147 266.162 85.4793 278.523 60.6758C269.757 66.1418 265.385 68.8869 256.618 74.3773C254.069 70.7332 252.83 68.9598 250.232 65.3158C227.331 32.4468 195.858 35.4349 179.295 68.2067C175.07 76.6365 170.164 85.8437 164.457 96.6543C170.407 87.6172 178.543 84.872 184.298 93.4962C189.276 100.857 191.754 104.525 196.635 111.886C187.916 117.352 183.545 120.097 174.754 125.563Z" fill="#228553"/>
<path d="M203.823 37.3541C191.098 39.1518 180.995 53.5821 172.18 69.3728C156.298 97.7961 148.332 112.226 132.499 140.625C108.894 126.584 97.0668 119.612 73.4619 106.687C85.0215 86.1353 90.8013 75.6648 102.361 54.5781C109.744 41.2411 122.687 32.5683 137.38 32.6655C163.972 33.7101 177.28 34.6818 203.823 37.3541Z" fill="#299E63"/>
<path d="M35.9661 210.688C44.1258 220.915 61.0767 223.757 78.5132 224.486C109.841 225.822 125.553 226.114 157.075 226.138C156.978 254.659 156.905 268.895 156.808 297.415C133.761 297.366 122.275 297.002 99.4225 295.544C84.8759 294.597 71.9077 285.851 65.0594 272.198C53.4512 247.128 47.6228 234.762 35.9661 210.688Z" fill="#299E63"/>
<path d="M0 260.368C0 260.368 8.96113 242.439 23.7749 243.119C34.266 243.605 35.9417 248.512 41.6729 250.942C46.7242 253.08 52.4311 253.055 57.6038 251.233C59.4252 250.602 61.7808 248.415 64.7921 247.249C75.4775 243.119 83.4186 251.039 85.8229 260.343H0V260.368Z" fill="#D4EBE0"/>
<path d="M282.7 171.454C282.7 171.454 288.99 158.845 299.408 159.331C306.791 159.671 307.544 161.979 311.988 164.822C315.096 166.838 319.541 167.47 323.183 166.182C324.47 165.72 326.122 164.19 328.235 163.388C335.739 160.473 341.3 164.894 343 171.454H282.7Z" fill="#D4EBE0"/>
<path d="M172.52 13.2793C172.52 13.2793 179.393 -0.519321 190.782 0.0151341C198.845 0.379535 199.671 2.90605 204.528 6.0399C207.927 8.22631 212.784 8.93081 216.767 7.54609C218.176 7.06022 219.973 5.38398 222.28 4.48512C230.488 1.30268 236.584 6.13707 238.429 13.3036H172.52V13.2793Z" fill="#D4EBE0"/>
</svg>
